<?xml version="1.0" encoding="UTF-8"?><svg version="1.1" width="24px" height="24px" viewBox="0 0 24.0 24.0" xmlns="http://www.w3.org/2000/svg" xmlns:xlink="http://www.w3.org/1999/xlink"><defs><clipPath id="i0"><path d="M1.19621165,0.147051761 L1.28033009,0.219669914 L5.99995229,4.93929239 C6.2815312,5.22047054 6.43975431,5.60207057 6.43975431,6 C6.43975431,6.34818825 6.31861474,6.6838743 6.09994707,6.95046986 L6.00033009,7.06033009 L1.28033009,11.7803301 C0.987436867,12.0732233 0.512563133,12.0732233 0.219669914,11.7803301 C-0.0465966484,11.5140635 -0.0708026996,11.0973998 0.147051761,10.8037883 L0.219669914,10.7196699 L4.93978334,6.00033582 L0.219669914,1.28033009 C-0.0732233047,0.987436867 -0.0732233047,0.512563133 0.219669914,0.219669914 C0.485936477,-0.0465966484 0.902600159,-0.0708026996 1.19621165,0.147051761 Z"></path></clipPath></defs><g transform="translate(18.469877155181226 9.030122844818832) rotate(90.00000000000001)"><g clip-path="url(#i0)"><polygon points="-5.68434189e-14,-2.83661983e-14 6.43975431,-2.83661983e-14 6.43975431,12 -5.68434189e-14,12 -5.68434189e-14,-2.83661983e-14" stroke="none" fill="#c61527"></polygon></g></g></svg>